<mxfile host="app.diagrams.net" modified="2022-03-10T06:18:38.957Z" agent="5.0 (Windows NT 10.0; Win64; x64) AppleWebKit/537.36 (KHTML, like Gecko) Chrome/99.0.4844.51 Safari/537.36" etag="ucE4nnKxfaaVIqQiRVTf" version="16.6.6" type="github">
  <diagram id="kgpKYQtTHZ0yAKxKKP6v" name="Page-1">
    <mxGraphModel dx="1422" dy="705" grid="1" gridSize="10" guides="1" tooltips="1" connect="1" arrows="1" fold="1" page="1" pageScale="1" pageWidth="850" pageHeight="1100" math="0" shadow="0">
      <root>
        <mxCell id="0" />
        <mxCell id="1" parent="0" />
        <mxCell id="vtGTpBDvWuEMaTytRT3X-57" value="alt" style="shape=umlFrame;whiteSpace=wrap;html=1;" vertex="1" parent="1">
          <mxGeometry y="1000" width="1030" height="100" as="geometry" />
        </mxCell>
        <mxCell id="vtGTpBDvWuEMaTytRT3X-53" value="alt" style="shape=umlFrame;whiteSpace=wrap;html=1;" vertex="1" parent="1">
          <mxGeometry x="30" y="641" width="934" height="250" as="geometry" />
        </mxCell>
        <mxCell id="3nuBFxr9cyL0pnOWT2aG-1" value="MDMProcess" style="shape=umlLifeline;perimeter=lifelinePerimeter;container=1;collapsible=0;recursiveResize=0;rounded=0;shadow=0;strokeWidth=1;" parent="1" vertex="1">
          <mxGeometry x="115" y="80" width="100" height="1160" as="geometry" />
        </mxCell>
        <mxCell id="3nuBFxr9cyL0pnOWT2aG-3" value="dispatch" style="verticalAlign=bottom;startArrow=oval;endArrow=block;startSize=8;shadow=0;strokeWidth=1;" parent="3nuBFxr9cyL0pnOWT2aG-1" edge="1">
          <mxGeometry relative="1" as="geometry">
            <mxPoint x="-15" y="70" as="sourcePoint" />
            <mxPoint x="41" y="70" as="targetPoint" />
          </mxGeometry>
        </mxCell>
        <mxCell id="vtGTpBDvWuEMaTytRT3X-18" value="Danh sách files" style="html=1;verticalAlign=bottom;endArrow=open;dashed=1;endSize=8;rounded=0;exitX=0;exitY=0.041;exitDx=0;exitDy=0;exitPerimeter=0;" edge="1" parent="3nuBFxr9cyL0pnOWT2aG-1" source="3nuBFxr9cyL0pnOWT2aG-6">
          <mxGeometry relative="1" as="geometry">
            <mxPoint x="335" y="120" as="sourcePoint" />
            <mxPoint x="53" y="120" as="targetPoint" />
          </mxGeometry>
        </mxCell>
        <mxCell id="3nuBFxr9cyL0pnOWT2aG-2" value="" style="points=[];perimeter=orthogonalPerimeter;rounded=0;shadow=0;strokeWidth=1;" parent="3nuBFxr9cyL0pnOWT2aG-1" vertex="1">
          <mxGeometry x="45" y="70" width="10" height="1050" as="geometry" />
        </mxCell>
        <mxCell id="vtGTpBDvWuEMaTytRT3X-66" value="" style="html=1;points=[];perimeter=orthogonalPerimeter;" vertex="1" parent="3nuBFxr9cyL0pnOWT2aG-1">
          <mxGeometry x="55" y="1060" width="10" height="40" as="geometry" />
        </mxCell>
        <mxCell id="vtGTpBDvWuEMaTytRT3X-67" value="13. Thực hiện xóa hoặc backup files&lt;br&gt;&amp;nbsp;nếu files đã xử lí" style="edgeStyle=orthogonalEdgeStyle;html=1;align=left;spacingLeft=2;endArrow=block;rounded=0;entryX=1;entryY=0;" edge="1" parent="3nuBFxr9cyL0pnOWT2aG-1" target="vtGTpBDvWuEMaTytRT3X-66">
          <mxGeometry relative="1" as="geometry">
            <mxPoint x="60" y="1040" as="sourcePoint" />
            <Array as="points">
              <mxPoint x="90" y="1040" />
            </Array>
          </mxGeometry>
        </mxCell>
        <mxCell id="3nuBFxr9cyL0pnOWT2aG-5" value="FTPServer" style="shape=umlLifeline;perimeter=lifelinePerimeter;container=1;collapsible=0;recursiveResize=0;rounded=0;shadow=0;strokeWidth=1;" parent="1" vertex="1">
          <mxGeometry x="400" y="80" width="100" height="1160" as="geometry" />
        </mxCell>
        <mxCell id="3nuBFxr9cyL0pnOWT2aG-6" value="" style="points=[];perimeter=orthogonalPerimeter;rounded=0;shadow=0;strokeWidth=1;" parent="3nuBFxr9cyL0pnOWT2aG-5" vertex="1">
          <mxGeometry x="45" y="70" width="10" height="1050" as="geometry" />
        </mxCell>
        <mxCell id="3nuBFxr9cyL0pnOWT2aG-8" value="1. Get danh sách files " style="verticalAlign=bottom;endArrow=block;entryX=0;entryY=0;shadow=0;strokeWidth=1;" parent="1" source="3nuBFxr9cyL0pnOWT2aG-2" target="3nuBFxr9cyL0pnOWT2aG-6" edge="1">
          <mxGeometry relative="1" as="geometry">
            <mxPoint x="275" y="160" as="sourcePoint" />
          </mxGeometry>
        </mxCell>
        <mxCell id="vtGTpBDvWuEMaTytRT3X-3" value="PROVISIONING" style="shape=umlLifeline;perimeter=lifelinePerimeter;container=1;collapsible=0;recursiveResize=0;rounded=0;shadow=0;strokeWidth=1;" vertex="1" parent="1">
          <mxGeometry x="640" y="80" width="100" height="1080" as="geometry" />
        </mxCell>
        <mxCell id="vtGTpBDvWuEMaTytRT3X-19" value="" style="points=[];perimeter=orthogonalPerimeter;rounded=0;shadow=0;strokeWidth=1;" vertex="1" parent="vtGTpBDvWuEMaTytRT3X-3">
          <mxGeometry x="45" y="70" width="10" height="1010" as="geometry" />
        </mxCell>
        <mxCell id="vtGTpBDvWuEMaTytRT3X-5" value="ABM" style="shape=umlLifeline;perimeter=lifelinePerimeter;container=1;collapsible=0;recursiveResize=0;rounded=0;shadow=0;strokeWidth=1;" vertex="1" parent="1">
          <mxGeometry x="874" y="80" width="100" height="1160" as="geometry" />
        </mxCell>
        <mxCell id="vtGTpBDvWuEMaTytRT3X-6" value="" style="points=[];perimeter=orthogonalPerimeter;rounded=0;shadow=0;strokeWidth=1;" vertex="1" parent="vtGTpBDvWuEMaTytRT3X-5">
          <mxGeometry x="45" y="70" width="10" height="1050" as="geometry" />
        </mxCell>
        <mxCell id="vtGTpBDvWuEMaTytRT3X-16" value="2. Lấy thông tin download files từ cache download" style="verticalAlign=bottom;endArrow=block;shadow=0;strokeWidth=1;" edge="1" parent="1" target="vtGTpBDvWuEMaTytRT3X-5">
          <mxGeometry relative="1" as="geometry">
            <mxPoint x="173" y="240.00000000000114" as="sourcePoint" />
            <mxPoint x="445" y="240.00000000000114" as="targetPoint" />
          </mxGeometry>
        </mxCell>
        <mxCell id="vtGTpBDvWuEMaTytRT3X-20" value="4. Cache thông tin files đã download vào cache download" style="verticalAlign=bottom;endArrow=block;shadow=0;strokeWidth=1;" edge="1" parent="1">
          <mxGeometry relative="1" as="geometry">
            <mxPoint x="170" y="362" as="sourcePoint" />
            <mxPoint x="920" y="362" as="targetPoint" />
            <Array as="points">
              <mxPoint x="340" y="362" />
            </Array>
          </mxGeometry>
        </mxCell>
        <mxCell id="vtGTpBDvWuEMaTytRT3X-21" value="return" style="html=1;verticalAlign=bottom;endArrow=open;dashed=1;endSize=8;rounded=0;" edge="1" parent="1">
          <mxGeometry relative="1" as="geometry">
            <mxPoint x="919" y="402" as="sourcePoint" />
            <mxPoint x="170" y="402" as="targetPoint" />
          </mxGeometry>
        </mxCell>
        <mxCell id="vtGTpBDvWuEMaTytRT3X-24" value="alt" style="shape=umlFrame;whiteSpace=wrap;html=1;" vertex="1" parent="1">
          <mxGeometry y="441" width="1030" height="520" as="geometry" />
        </mxCell>
        <mxCell id="vtGTpBDvWuEMaTytRT3X-25" value="5. Kiểm tra nodeMdmProcess&amp;nbsp;&lt;br&gt;cho phép xử lí files:&amp;nbsp;&lt;br&gt;- Node master&lt;br&gt;- Cấu hình &lt;br&gt;disableProcessFile=false" style="text;html=1;align=left;verticalAlign=middle;resizable=0;points=[];autosize=1;strokeColor=none;fillColor=none;" vertex="1" parent="1">
          <mxGeometry x="7" y="471" width="180" height="80" as="geometry" />
        </mxCell>
        <mxCell id="vtGTpBDvWuEMaTytRT3X-28" value="return" style="html=1;verticalAlign=bottom;endArrow=open;dashed=1;endSize=8;rounded=0;" edge="1" parent="1" source="vtGTpBDvWuEMaTytRT3X-5">
          <mxGeometry relative="1" as="geometry">
            <mxPoint x="447" y="279.99999999999994" as="sourcePoint" />
            <mxPoint x="170" y="280.08" as="targetPoint" />
          </mxGeometry>
        </mxCell>
        <mxCell id="vtGTpBDvWuEMaTytRT3X-34" value="3. Download files mới" style="verticalAlign=bottom;endArrow=block;shadow=0;strokeWidth=1;exitX=1;exitY=0.162;exitDx=0;exitDy=0;exitPerimeter=0;" edge="1" parent="1" source="3nuBFxr9cyL0pnOWT2aG-2">
          <mxGeometry relative="1" as="geometry">
            <mxPoint x="180" y="320" as="sourcePoint" />
            <mxPoint x="449.5" y="320" as="targetPoint" />
            <Array as="points">
              <mxPoint x="350" y="320" />
            </Array>
          </mxGeometry>
        </mxCell>
        <mxCell id="vtGTpBDvWuEMaTytRT3X-36" value="" style="html=1;points=[];perimeter=orthogonalPerimeter;" vertex="1" parent="1">
          <mxGeometry x="170" y="541" width="10" height="360" as="geometry" />
        </mxCell>
        <mxCell id="vtGTpBDvWuEMaTytRT3X-37" value="6. Đọc từng files và xử lí từng dòng:&lt;br&gt;&amp;nbsp;parse ra thông tin thuê bao&amp;nbsp;" style="edgeStyle=orthogonalEdgeStyle;html=1;align=left;spacingLeft=2;endArrow=block;rounded=0;entryX=1;entryY=0;" edge="1" parent="1" target="vtGTpBDvWuEMaTytRT3X-36">
          <mxGeometry relative="1" as="geometry">
            <mxPoint x="175" y="521" as="sourcePoint" />
            <Array as="points">
              <mxPoint x="205" y="521" />
            </Array>
          </mxGeometry>
        </mxCell>
        <mxCell id="vtGTpBDvWuEMaTytRT3X-39" value="7.Lấy thông tin thuê bao &#xa;xử lí mdm từ cache mdm" style="verticalAlign=bottom;endArrow=block;shadow=0;strokeWidth=1;" edge="1" parent="1">
          <mxGeometry relative="1" as="geometry">
            <mxPoint x="183" y="561.0000000000011" as="sourcePoint" />
            <mxPoint x="920" y="561" as="targetPoint" />
          </mxGeometry>
        </mxCell>
        <mxCell id="vtGTpBDvWuEMaTytRT3X-40" value="return" style="html=1;verticalAlign=bottom;endArrow=open;dashed=1;endSize=8;rounded=0;" edge="1" parent="1">
          <mxGeometry relative="1" as="geometry">
            <mxPoint x="920" y="600" as="sourcePoint" />
            <mxPoint x="180" y="600" as="targetPoint" />
          </mxGeometry>
        </mxCell>
        <mxCell id="vtGTpBDvWuEMaTytRT3X-45" value="9. Gửi thông tin dữ liệu của thuê bao  cần xử lí cập nhật" style="verticalAlign=bottom;endArrow=block;shadow=0;strokeWidth=1;" edge="1" parent="1">
          <mxGeometry relative="1" as="geometry">
            <mxPoint x="190" y="681" as="sourcePoint" />
            <mxPoint x="690" y="681" as="targetPoint" />
            <Array as="points">
              <mxPoint x="370" y="681" />
              <mxPoint x="530" y="681" />
            </Array>
          </mxGeometry>
        </mxCell>
        <mxCell id="vtGTpBDvWuEMaTytRT3X-48" value="return" style="html=1;verticalAlign=bottom;endArrow=open;dashed=1;endSize=8;rounded=0;" edge="1" parent="1">
          <mxGeometry relative="1" as="geometry">
            <mxPoint x="679" y="721" as="sourcePoint" />
            <mxPoint x="179" y="721" as="targetPoint" />
          </mxGeometry>
        </mxCell>
        <mxCell id="vtGTpBDvWuEMaTytRT3X-52" value="return" style="html=1;verticalAlign=bottom;endArrow=open;dashed=1;endSize=8;rounded=0;" edge="1" parent="1">
          <mxGeometry relative="1" as="geometry">
            <mxPoint x="920" y="801" as="sourcePoint" />
            <mxPoint x="180" y="801" as="targetPoint" />
          </mxGeometry>
        </mxCell>
        <mxCell id="vtGTpBDvWuEMaTytRT3X-54" value="8. Từ cache mdm&lt;br&gt;&amp;nbsp;tương ứng kiểm tra&lt;br&gt;Thông tin thuê bao &lt;br&gt;được parse từ từng&amp;nbsp;&lt;br&gt;dòng hợp lệ và &lt;br&gt;cần xử lí" style="text;html=1;align=left;verticalAlign=middle;resizable=0;points=[];autosize=1;strokeColor=none;fillColor=none;" vertex="1" parent="1">
          <mxGeometry x="34" y="691" width="120" height="90" as="geometry" />
        </mxCell>
        <mxCell id="vtGTpBDvWuEMaTytRT3X-55" value="10. Cache thông tin thê bao đã xử lí vào cache mdm" style="verticalAlign=bottom;endArrow=block;shadow=0;strokeWidth=1;" edge="1" parent="1">
          <mxGeometry relative="1" as="geometry">
            <mxPoint x="180" y="761.0000000000011" as="sourcePoint" />
            <mxPoint x="917" y="761" as="targetPoint" />
          </mxGeometry>
        </mxCell>
        <mxCell id="vtGTpBDvWuEMaTytRT3X-56" value="11. Cache thông tin files đã xử lí vào cache process" style="verticalAlign=bottom;endArrow=block;shadow=0;strokeWidth=1;" edge="1" parent="1">
          <mxGeometry relative="1" as="geometry">
            <mxPoint x="170" y="921" as="sourcePoint" />
            <mxPoint x="920" y="921" as="targetPoint" />
          </mxGeometry>
        </mxCell>
        <mxCell id="vtGTpBDvWuEMaTytRT3X-58" value="Ngược lại, node &lt;br&gt;mdmProcess&lt;br&gt;không cần xử lí files" style="text;html=1;align=left;verticalAlign=middle;resizable=0;points=[];autosize=1;strokeColor=none;fillColor=none;" vertex="1" parent="1">
          <mxGeometry x="7" y="1031" width="120" height="50" as="geometry" />
        </mxCell>
        <mxCell id="vtGTpBDvWuEMaTytRT3X-59" value="12. Lấy thông tin xử lí files từ cache process" style="verticalAlign=bottom;endArrow=block;shadow=0;strokeWidth=1;" edge="1" parent="1">
          <mxGeometry relative="1" as="geometry">
            <mxPoint x="170" y="1041" as="sourcePoint" />
            <mxPoint x="920" y="1041" as="targetPoint" />
          </mxGeometry>
        </mxCell>
        <mxCell id="vtGTpBDvWuEMaTytRT3X-60" value="return" style="html=1;verticalAlign=bottom;endArrow=open;dashed=1;endSize=8;rounded=0;" edge="1" parent="1">
          <mxGeometry relative="1" as="geometry">
            <mxPoint x="920" y="1081" as="sourcePoint" />
            <mxPoint x="170" y="1081" as="targetPoint" />
          </mxGeometry>
        </mxCell>
      </root>
    </mxGraphModel>
  </diagram>
</mxfile>
